<?xml version="1.0" encoding="UTF-8"?>
<!DOCTYPE svg PUBLIC "-//W3C//DTD SVG 1.1//EN" "http://www.w3.org/Graphics/SVG/1.1/DTD/svg11.dtd">
<!-- Creator: CorelDRAW -->
<?xml-stylesheet href="logo1.css" type="text/css"?>
<svg xmlns="http://www.w3.org/2000/svg" xml:space="preserve" width="85mm" height="83mm" version="1.1" style="shape-rendering:geometricPrecision; text-rendering:geometricPrecision; image-rendering:optimizeQuality; fill-rule:evenodd; clip-rule:evenodd"
viewBox="0 0 8500 8300"
 xmlns:xlink="http://www.w3.org/1999/xlink">
 <defs>
 <linearGradient id="id0" gradientUnits="userSpaceOnUse" x1="3805.26" y1="3623.75" x2="8539.85" y2="3623.75">
  <stop offset="0" style="stop-opacity:1; stop-color:#115DCD"/>
  <stop offset="1" style="stop-opacity:1; stop-color:#FF6EF6"/>
 </linearGradient>
 <linearGradient id="id1" gradientUnits="userSpaceOnUse" x1="1662.78" y1="5598.46" x2="4940.89" y2="5598.46">
  <stop offset="0" style="stop-opacity:1; stop-color:#0095F2"/>
  <stop offset="1" style="stop-opacity:1; stop-color:#00FDEF"/>
 </linearGradient>
 <linearGradient id="id2" gradientUnits="userSpaceOnUse" xlink:href="#id1" x1="1046.57" y1="3166.83" x2="5888.6" y2="3166.83">
 </linearGradient>
 <linearGradient id="id3" gradientUnits="userSpaceOnUse" xlink:href="#id0" x1="39.76" y1="4204.3" x2="7529.24" y2="4204.3">
 </linearGradient>
 <linearGradient id="id4" gradientUnits="userSpaceOnUse" x1="654.38" y1="4843.54" x2="7203.88" y2="4843.54">
  <stop offset="0" style="stop-opacity:1; stop-color:#00D1F2"/>
  <stop offset="1" style="stop-opacity:1; stop-color:#00F2EF"/>
 </linearGradient>
 <linearGradient id="id5" gradientUnits="userSpaceOnUse" xlink:href="#id4" x1="6595.98" y1="4530.93" x2="-1530.76" y2="4530.93">
 </linearGradient>
 <linearGradient id="id6" gradientUnits="userSpaceOnUse" x1="5908.43" y1="6355.64" x2="93.22" y2="6355.64">
  <stop offset="0" style="stop-opacity:1; stop-color:#1128DB"/>
  <stop offset="1" style="stop-opacity:1; stop-color:#FF6EF6"/>
 </linearGradient>
 <linearGradient id="id7" gradientUnits="userSpaceOnUse" xlink:href="#id0" x1="4431.34" y1="4466.87" x2="8082.41" y2="2977.01">
 </linearGradient>
 </defs>
 <g id="‘лой_x0020_1">
  <metadata id="CorelCorpID_0Corel-Layer"/>
  <g id="_105553416497600">
   <path class="fil0" d="M1982.77 5354.86l2958.12 124.96c-412,318.32 -929.47,507.36 -1490.96,507.36 -706.21,0 -1342.25,-299.36 -1787.15,-777.45l319.99 145.13z"/>
   <path class="fil1" d="M5888.6 3555.17c0,508.94 -156.64,981.5 -424.68,1371.81 -13.49,-0.39 -26.57,-0.39 -40.06,0 -450.85,15.03 -642.24,283.53 -642.24,283.53 -85.66,-336.12 -412.41,-692.53 -1040.9,-782.79 -516.31,-74.14 -918.63,233.98 -918.63,233.98 86.06,-419.96 -136.27,-1191.16 -832.58,-1461.66 -358.45,-139.19 -697.89,-114.27 -942.94,-57.33 195.88,-1146.41 1197.52,-2019.57 2403.36,-2019.57 1347.02,0 2438.67,1089.07 2438.67,2432.03z"/>
   <g>
    <path class="fil2" d="M4898.46 6100.67c-427.07,242.41 -921.54,380.81 -1448.53,380.81 -1620.62,0 -2934.31,-1310.11 -2934.31,-2926.31 0,-1615.82 1313.69,-2926.34 2934.31,-2926.34 0,0 124.78,-7.44 327.53,8.94 1274.07,146.38 2298.97,1108.45 2534.24,2349.92l1217.54 -552.05 -778.53 264.94c-380.18,-1464.56 -1713.25,-2546.29 -3300.78,-2546.29 -1.66,0 -3.3,0.12 -4.95,0.12 -1.93,0 -3.83,-0.12 -5.75,-0.12 -993.83,0 -1887.29,427.38 -2506.97,1107.37 -3.55,3.86 -7.13,7.68 -10.66,11.56 -28.66,31.76 -56.69,64.08 -84.15,96.9 -7.92,9.4 -16.07,18.59 -23.88,28.06 -8.87,10.84 -17.28,22.06 -26.02,33.01 -467.52,582.11 -747.78,1320.25 -747.78,2123.98 0,931.28 375.51,1774.77 983.39,2388.9l-0.78 0 51.54 52.2c0.8,1.19 1.99,1.98 2.78,2.77 3.57,3.56 7.54,7.12 11.5,11.07 16.26,15.02 36.08,34.01 59.88,56.15 23.39,21.76 50.76,43.5 81.29,69.6 15.46,13.05 31.32,26.5 48.37,40.73 17.84,13.46 36.49,27.68 56.31,42.32 19.43,15.03 39.65,30.45 60.67,46.27 21.41,15.42 44.41,30.45 67.8,46.26 23.4,15.82 47.59,32.43 72.57,49.44 25.78,15.42 52.34,31.23 79.7,47.85 53.54,34.39 113.41,64.85 174.87,98.06 124.51,63.28 262.5,127.34 414.38,181.13 74.94,28.86 154.65,51.41 235.54,77.11 81.68,21.74 164.95,45.08 251.39,62.08 172.1,36.38 352.53,64.46 537.3,75.54 46,4.74 92.4,4.74 139.19,6.72l69.78 2.76c22.21,0.4 47.19,-0.4 70.2,-0.4 44.01,0 94.77,-2.76 140.36,-5.53l69.39 -5.93 69.4 -8.7c371.55,-49.43 728.42,-195.36 1020.67,-393.47 72.96,-49.04 142.35,-102.03 211.35,-153.83 68.6,-51.02 136,-101.64 201.44,-150.27 131.25,-98.08 254.97,-190.61 369.17,-276.03 414.38,-309.25 703.44,-525.15 754.2,-563.11 -49.57,39.14 -333.09,262.57 -739.13,582.89 -111.83,88.17 -233.17,183.87 -361.64,285.11 -64.24,50.62 -130.06,102.82 -197.47,155.81 -67.41,52.99 -135.62,108.35 -209.37,160.55 -292.64,209.59 -654.28,369.75 -1037.33,430.65l-72.16 10.67 -72.97 8.31c-48.77,4.35 -93.18,7.91 -143.94,9.5 -24.18,0.78 -46.39,1.97 -72.17,1.97l-71.37 -0.8c-47.98,-0.78 -95.56,0.4 -142.75,-3.15 -189.94,-6.33 -375.51,-30.45 -553.55,-63.28 -89.22,-15.42 -175.66,-37.17 -260.52,-57.34 -84.07,-24.12 -166.55,-45.08 -245.07,-73.15 -158.21,-51.41 -303.34,-113.9 -434.59,-176.38 -24.58,-12.65 -48.77,-24.91 -72.56,-37.17l1527.03 1553.73c146.32,148.68 385.83,148.68 532.14,0l2161.49 -2198.71 65.03 -68.41 896.56 -908.74c0,0 -1906.91,1114.77 -1938.63,1132.56l-1.99 1.19z"/>
    <path class="fil3" d="M6343.42 5354.86l-1686.05 1494.79c0,0 -602.73,506.57 -1218.14,506.57 -0.4,0 -0.4,0 -0.8,0 -693.92,7.52 -1229.24,-205.24 -1229.24,-205.24l-552.36 -561.93c23.79,12.26 47.98,24.52 72.56,37.17 131.25,62.48 276.38,124.97 434.59,176.38 78.52,28.07 161,49.03 245.07,73.15 84.86,20.17 171.3,41.92 260.52,57.34 178.04,32.83 363.61,56.95 553.55,63.28 47.19,3.55 94.77,2.37 142.75,3.15l71.37 0.8c25.78,0 47.99,-1.19 72.17,-1.97 50.76,-1.59 95.17,-5.15 143.94,-9.5l72.97 -8.31 72.16 -10.67c383.05,-60.9 744.69,-221.06 1037.33,-430.65 73.75,-52.2 141.96,-107.56 209.37,-160.55 67.41,-52.99 133.23,-105.19 197.47,-155.81 128.47,-101.24 249.81,-196.94 361.64,-285.11 367.97,-290.27 635.23,-501.03 718.9,-567.07l14.68 -11.47 0 -0.4 5.55 -3.95z"/>
   </g>
   <g>
    <path class="fil4" d="M7203.89 4627.23l-2204.31 1263.85c-67.01,41.92 -201.04,107.56 -271.63,143.94l-4.35 2.38c-381.87,195.35 -814.88,305.68 -1273.67,305.68 -1544.09,0 -2795.54,-1248.03 -2795.54,-2787.91 0,0 531.76,-335.74 1204.67,-160.56 1080.14,281.96 817.65,1522.49 817.65,1522.49 0,0 375.5,-426.7 1169.76,-286.71 773.23,136.04 912.02,810.68 912.02,810.68 0,0 134.02,-261.8 485.75,-370.93 231.17,-71.19 436.57,-32.03 550.38,3.16 59.48,18.58 93.98,35.99 93.98,35.99l1315.29 -482.06z"/>
    <path class="fil5" d="M7203.89 4627.23l-1260.77 582.5c0,0 -208.56,-142.74 -609.67,-40.73 -370.09,94.11 -604.7,548.87 -604.7,548.87 0,0 -222.04,-700.05 -912.02,-874.33 -918.45,-231.98 -1387.87,557.98 -1387.87,557.98 0,0 252.8,-771.13 -203.21,-1473.05 -456.01,-701.93 -1571.26,-373.3 -1571.26,-373.3 0,0 531.76,-335.74 1204.67,-160.56 1080.14,281.96 817.65,1522.49 817.65,1522.49 0,0 375.5,-426.7 1169.76,-286.71 773.23,136.04 912.02,810.68 912.02,810.68 0,0 134.02,-261.8 485.75,-370.93 231.17,-71.19 436.57,-32.03 550.38,3.16 59.48,18.58 93.98,35.99 93.98,35.99l1315.29 -482.06z"/>
   </g>
   <g>
    <path class="fil6" d="M8533.45 2979.78c-28.94,97.68 -168.52,225.02 -557.12,378.44 -130.85,51.41 -441.34,166.49 -820.82,305.69l-805.75 742.27 -107.46 44.29 206.19 -484.83 349.35 -171.22c-160.59,58.52 -1780.42,646.16 -1992.16,722.08 -39.66,15.03 -82.49,18.19 -124.12,10.69l-848.58 -155.42c-10.7,-2.37 -18.24,-12.66 -16.65,-23.73l1.59 -11.08 3.17 -22.14c1.59,-10.67 11.1,-18.19 21.02,-17.79l354.5 9.49 -387.02 -374.89c-7.54,-7.51 -4.76,-19.77 4.76,-23.32l172.49 -60.51c17.44,-6.33 36.48,-6.73 54.32,-1.59 96.36,30.06 426.27,133.67 687.59,224.23 42.82,4.34 380.66,-153.84 816.85,-363.81l185.58 35.98 -1246.77 -418.86c-7.75,-2.61 -8.17,-13.37 -0.64,-16.57l141.97 -60.36c7.5,-3.19 15.65,-4.61 23.79,-4.12l1658.2 97.74c511.53,-244.39 1018.29,-470.99 1282.77,-572.22 173.22,-66.12 286.95,-59.47 451.75,-32.28 150.36,0 325.9,23.48 401.59,56.79 58.87,25.92 115.39,100.05 89.61,187.05z"/>
    <path class="fil7" d="M8533.45 2979.78c-28.94,97.68 -168.52,225.02 -557.12,378.44 -130.85,51.41 -441.34,166.49 -820.82,305.69l-805.75 742.27 -107.46 44.29 206.19 -484.83 349.35 -171.22c-160.59,58.52 -1780.42,646.16 -1992.16,722.08 -39.66,15.03 -82.49,18.19 -124.12,10.69l-848.58 -155.42c-10.7,-2.37 -18.24,-12.66 -16.65,-23.73l1.59 -11.08c0,0 859.68,155.02 904.09,153.44 44.81,-1.57 3422.05,-1283.62 3422.05,-1283.62 0,0 314.85,-117.85 389.39,-227z"/>
   </g>
  </g>
 </g>
</svg>
